<svg width="20" height="22" viewBox="0 0 20 22" fill="none" xmlns="http://www.w3.org/2000/svg">
<path d="M14.3269 7.55447C13.9074 7.55447 13.5596 7.20663 13.5596 6.78718V5.37536C13.5596 4.30116 13.0992 3.25763 12.3012 2.53126C11.493 1.79465 10.4495 1.45704 9.34457 1.55935C7.50307 1.73327 5.88664 3.6157 5.88664 5.57997V6.57233C5.88664 6.99179 5.5388 7.33963 5.11934 7.33963C4.69989 7.33963 4.35205 6.99179 4.35205 6.57233V5.56974C4.35205 2.81771 6.57209 0.280528 9.20135 0.0247633C10.7359 -0.118465 12.2091 0.362372 13.3345 1.39566C14.4496 2.40849 15.0942 3.86123 15.0942 5.37536V6.78718C15.0942 7.20663 14.7463 7.55447 14.3269 7.55447Z" fill="white"/>
<path d="M12.792 22H6.65369C1.92716 22 1.04733 19.8004 0.822257 17.6622L0.0549632 11.5341C-0.0575732 10.4292 -0.0984953 8.84347 0.975716 7.65672C1.89647 6.63366 3.42082 6.14259 5.63063 6.14259H13.8151C16.0351 6.14259 17.5595 6.64389 18.47 7.65672C19.534 8.84347 19.5033 10.4292 19.3907 11.5136L18.6234 17.6622C18.3984 19.8004 17.5185 22 12.792 22ZM5.63063 7.67718C3.90166 7.67718 2.71491 8.01479 2.11131 8.69001C1.61001 9.24246 1.44632 10.0916 1.57932 11.3602L2.34661 17.4883C2.52053 19.1252 2.97068 20.4756 6.65369 20.4756H12.792C16.475 20.4756 16.9252 19.1354 17.0991 17.5088L17.8664 11.3602C17.9994 10.1121 17.8357 9.26292 17.3344 8.70024C16.7308 8.01479 15.544 7.67718 13.8151 7.67718H5.63063Z" fill="white"/>
<path d="M13.2221 12.1785C12.6492 12.1785 12.1888 11.7182 12.1888 11.1555C12.1888 10.5928 12.6492 10.1324 13.2119 10.1324C13.7746 10.1324 14.235 10.5928 14.235 11.1555C14.235 11.7182 13.7848 12.1785 13.2221 12.1785Z" fill="white"/>
<path d="M6.06063 12.1785C5.48772 12.1785 5.02734 11.7182 5.02734 11.1555C5.02734 10.5928 5.48772 10.1324 6.0504 10.1324C6.61308 10.1324 7.07346 10.5928 7.07346 11.1555C7.07346 11.7182 6.62331 12.1785 6.06063 12.1785Z" fill="white"/>
</svg>
